<svg width="1440" height="1210" viewBox="0 0 1440 1210" fill="none" xmlns="http://www.w3.org/2000/svg">
<g clip-path="url(#clip0_464_1159)">
<path d="M939 916L674.5 1185M939 916L613 871M939 916L1255.5 1117.5M939 916L845 738M939 916L1215 804M939 916L885.5 1064.5M674.5 1185L613 871M674.5 1185L885.5 1064.5M674.5 1185L505 1031M613 871L505 1031M613 871L427 816M613 871L613 659M613 871L845 738M505 1031L427 816M505 1031L264 1046M427 816L264 1046M427 816L264 773M427 816L437 584M427 816L613 659M264 1046V773M264 1046L115 916M264 1046L-85 1185L115 916M264 773L115 916M264 773L89 686M264 773L228 510M264 773L437 584M115 916L-20 830L89 686M115 916L89 686M89 686L228 510M89 686L-29 620M89 686L-29 411V384M228 510L437 584M228 510L-29 384M228 510L75 41M228 510L372 337.5M437 584L372 337.5M437 584L623 379M437 584L613 659M-29 384L-41 124L75 41M-29 384L75 41M75 41L372 337.5M75 41L372 143M372 337.5L372 143M372 337.5L556 16M372 337.5L623 379M372 143L556 16M556 16L623 379M556 16L765 185.5M623 379L765 185.5M623 379L613 659M613 659L827 489M613 659L845 738M1255.5 1117.5L1215 804M1255.5 1117.5L885.5 1064.5M1255.5 1117.5L1458 681M1255.5 1117.5L1524 1046L1458 681M845 738L827 489M845 738L1215 804M845 738L1056 494M827 489L765 185.5M827 489L970 154M827 489L1056 494M765 185.5L970 154M970 154L1056 494M970 154L1290 439M970 154L1215 205.5M1290 439L1056 494M1290 439L1458 681M1290 439L1215 205.5M1290 439L1524 16M1056 494L1215 804M1056 494L1458 681M1215 804L1458 681M1458 681L1524 16M1215 205.5L1524 16" stroke="#0A516A" stroke-opacity="0.6"/>
</g>
<defs>
<clipPath id="clip0_464_1159">
<rect width="1440" height="1210" fill="white"/>
</clipPath>
</defs>
</svg>
